<svg xmlns="http://www.w3.org/2000/svg" viewBox="0 0 284.91 54.48"><defs><style>.a{fill:#524a48;}.b{fill:#ef5323;}.c{fill:#fff;}</style></defs><title>shLogo</title><path class="a" d="M148.33,4.95a13.25,13.25,0,0,1-.08,1.58,3.54,3.54,0,0,1-.25,1,1.64,1.64,0,0,1-.39.56.74.74,0,0,1-.5.19H133.86V13h9.32a.84.84,0,0,1,.5.16,1.32,1.32,0,0,1,.39.53,3.47,3.47,0,0,1,.25,1,12.82,12.82,0,0,1,.08,1.57,4.14,4.14,0,0,1-.08.94,3.86,3.86,0,0,1-.25,1,1.44,1.44,0,0,1-.39.58.78.78,0,0,1-.5.17h-9.32v5.76a1,1,0,0,1-.19.59,1.41,1.41,0,0,1-.67.42,6.07,6.07,0,0,1-1.27.27,17.37,17.37,0,0,1-2,.09,17.51,17.51,0,0,1-2-.09,5.73,5.73,0,0,1-1.27-.27,1.51,1.51,0,0,1-.67-.42.91.91,0,0,1-.2-.59V4.17a2.51,2.51,0,0,1,.7-2A2.56,2.56,0,0,1,128,1.57h19.08a.79.79,0,0,1,.5.17,1.45,1.45,0,0,1,.39.56,3.79,3.79,0,0,1,.25,1A13.6,13.6,0,0,1,148.33,4.95Z"/><path class="a" d="M93.26,15.57a7.56,7.56,0,0,0-2-2.1A12.59,12.59,0,0,0,88.65,12c-.93-.38-1.89-.72-2.87-1L83,10.15a22.18,22.18,0,0,1-2.34-.8,5.16,5.16,0,0,1-1.45-.85.8.8,0,0,1-.32-.64.94.94,0,0,1,.15-.5,1.43,1.43,0,0,1,.53-.48,4.16,4.16,0,0,1,1.19-.42,8.67,8.67,0,0,1,1.84-.17,13.43,13.43,0,0,1,2.58.23A19.58,19.58,0,0,1,87.25,7c.61.19,1.14.37,1.55.54a3.76,3.76,0,0,0,1.31.32,1.86,1.86,0,0,0,1-.26,1.65,1.65,0,0,0,.66-.81A3.38,3.38,0,0,0,92,6a9.15,9.15,0,0,0,0-1c0-.35,0-.64,0-.88a3.4,3.4,0,0,0-.14-.75,2.17,2.17,0,0,0-.31-.62,2.44,2.44,0,0,0-.61-.54,5.77,5.77,0,0,0-1.36-.58,18.85,18.85,0,0,0-2-.52C86.76.93,85.94.8,85.07.71A25.83,25.83,0,0,0,77.66,1a14.4,14.4,0,0,0-4,1.37,8.34,8.34,0,0,0-2.87,2.43,5.91,5.91,0,0,0-1.13,3.57,5.73,5.73,0,0,0,.8,3.06,7.55,7.55,0,0,0,2,2.11A12.4,12.4,0,0,0,75,15c.92.38,1.88.73,2.85,1l2.78.84a21.36,21.36,0,0,1,2.29.8,5.37,5.37,0,0,1,1.45.86.8.8,0,0,1,.33.65,1.23,1.23,0,0,1-.22.72,2,2,0,0,1-.76.64,5.59,5.59,0,0,1-1.5.5,11,11,0,0,1-2.16.19A17.3,17.3,0,0,1,76.69,21a21.12,21.12,0,0,1-2.49-.64c-.69-.23-1.27-.45-1.71-.64a2.65,2.65,0,0,0-2.38-.18,1.72,1.72,0,0,0-.76.76,2.9,2.9,0,0,0-.28.93A7.92,7.92,0,0,0,69,22.29a5.12,5.12,0,0,0,.2,1.6,2.26,2.26,0,0,0,.88,1.18,7,7,0,0,0,1.36.65,16.66,16.66,0,0,0,2.14.63,28.4,28.4,0,0,0,2.88.5,28,28,0,0,0,3.53.21,26.91,26.91,0,0,0,5.28-.5,16.14,16.14,0,0,0,4.42-1.51,9.18,9.18,0,0,0,3.14-2.64,6.34,6.34,0,0,0,1.23-3.85A5.57,5.57,0,0,0,93.26,15.57Z"/><path class="a" d="M124.32,13.6a14.11,14.11,0,0,1-.92,5.2,10.67,10.67,0,0,1-2.8,4,12.87,12.87,0,0,1-4.71,2.62,21.35,21.35,0,0,1-6.61.92,21.88,21.88,0,0,1-6.37-.83,11.91,11.91,0,0,1-4.49-2.4,9.55,9.55,0,0,1-2.65-3.87A14.92,14.92,0,0,1,94.92,14a14,14,0,0,1,.94-5.21,10.66,10.66,0,0,1,2.81-4,13,13,0,0,1,4.69-2.61,21.19,21.19,0,0,1,6.6-.92,22.42,22.42,0,0,1,6.4.81,11.66,11.66,0,0,1,4.47,2.39,9.62,9.62,0,0,1,2.63,3.87A15,15,0,0,1,124.32,13.6Zm-8,.25a13.45,13.45,0,0,0-.32-3,6.38,6.38,0,0,0-1.09-2.41,5.14,5.14,0,0,0-2-1.6,7.85,7.85,0,0,0-3.21-.58,8.13,8.13,0,0,0-3,.51,5.24,5.24,0,0,0-2.12,1.5,6.54,6.54,0,0,0-1.24,2.37,11,11,0,0,0-.42,3.16,12.79,12.79,0,0,0,.34,3,6.68,6.68,0,0,0,1.09,2.41,4.89,4.89,0,0,0,2,1.59,8,8,0,0,0,3.2.56,8.25,8.25,0,0,0,3-.51,5.32,5.32,0,0,0,2.12-1.49A6.27,6.27,0,0,0,116,17,11.39,11.39,0,0,0,116.35,13.85Z"/><path class="a" d="M213.53,2.18a1.56,1.56,0,0,0-.82-.46,6.49,6.49,0,0,0-1.21-.18q-.72-.05-1.85,0t-1.86,0a6,6,0,0,0-1.25.19,1.73,1.73,0,0,0-.85.49,1.51,1.51,0,0,0-.35.69l-4.66,14.6L195.8,2.78a1.88,1.88,0,0,0-.36-.6,1.65,1.65,0,0,0-.82-.45,7.07,7.07,0,0,0-1.18-.19c-.47,0-1.09-.06-1.84-.06s-1.37,0-1.85,0a5.5,5.5,0,0,0-1.21.19,1.82,1.82,0,0,0-.81.47,1.75,1.75,0,0,0-.41.71l-4.53,14.53L178,2.91a2,2,0,0,0-.35-.67,1.63,1.63,0,0,0-.85-.51,6.24,6.24,0,0,0-1.28-.19q-.76-.05-2,0t-1.87,0a7.29,7.29,0,0,0-1.26.17,1.7,1.7,0,0,0-.87.45,1.16,1.16,0,0,0-.3.78,4.32,4.32,0,0,0,.08.77,7.16,7.16,0,0,0,.37,1.19l7.05,19.58a2.15,2.15,0,0,0,.48.85,2.08,2.08,0,0,0,1,.55,7.88,7.88,0,0,0,1.54.23c.61,0,1.41.06,2.44.06s1.79,0,2.42,0a7.72,7.72,0,0,0,1.58-.21,2,2,0,0,0,1-.56,2.24,2.24,0,0,0,.45-.86l3.7-11.8,4,11.8a2.18,2.18,0,0,0,.48.85,2.1,2.1,0,0,0,1,.55,8,8,0,0,0,1.56.23c.62,0,1.42.06,2.43.06s1.79,0,2.41,0a6.88,6.88,0,0,0,1.53-.22,2.13,2.13,0,0,0,1-.54,2.41,2.41,0,0,0,.5-.85l7.12-19.62c.17-.51.28-.89.34-1.17a3.52,3.52,0,0,0,.1-.77A1.18,1.18,0,0,0,213.53,2.18Z"/><path class="a" d="M237.23,6.1A6.52,6.52,0,0,0,235,3.2a10.51,10.51,0,0,0-3.86-1.62,28.12,28.12,0,0,0-9-.28,27.69,27.69,0,0,0-3.12.61,20.49,20.49,0,0,0-2.52.81,6.2,6.2,0,0,0-1.61.86,2.33,2.33,0,0,0-.73,1A4.25,4.25,0,0,0,214,6a5.79,5.79,0,0,0,.1,1.12,3.45,3.45,0,0,0,.3.92,1.8,1.8,0,0,0,.59.68c.57.38,1.27.35,2.34-.13.49-.22,1.09-.46,1.86-.74a21.69,21.69,0,0,1,2.55-.74A14.57,14.57,0,0,1,225,6.78a9.61,9.61,0,0,1,2.28.23,3.19,3.19,0,0,1,1.33.64,2.33,2.33,0,0,1,.68,1,5.19,5.19,0,0,1,.23,1.62v.78h-2.07a40.23,40.23,0,0,0-6.34.44,16.23,16.23,0,0,0-4.65,1.4,7.36,7.36,0,0,0-2.92,2.49,6.42,6.42,0,0,0-1,3.58,6.58,6.58,0,0,0,3,5.7,10.17,10.17,0,0,0,3.25,1.41,16.51,16.51,0,0,0,4,.47,13.67,13.67,0,0,0,4.87-.84,13,13,0,0,0,3-1.63v.62a1.16,1.16,0,0,0,.46,1,2.31,2.31,0,0,0,1.12.38,22.08,22.08,0,0,0,4,0,2.81,2.81,0,0,0,1.16-.36,1.14,1.14,0,0,0,.54-1V10.16A10.86,10.86,0,0,0,237.23,6.1Zm-13.11,10.1a18.57,18.57,0,0,1,3-.21h2.34v2.92a11,11,0,0,1-2.41,1.68,6,6,0,0,1-2.68.6,4.41,4.41,0,0,1-2.63-.68,2,2,0,0,1-.84-1.71,2.16,2.16,0,0,1,.3-1.15,2.49,2.49,0,0,1,1-.86A6.37,6.37,0,0,1,224.12,16.19Z"/><path class="a" d="M258.58,3.8a5.08,5.08,0,0,0-.1-.85,2.14,2.14,0,0,0-.18-.52,1.3,1.3,0,0,0-.4-.46,2.22,2.22,0,0,0-.68-.31,7.23,7.23,0,0,0-.9-.21c-.34-.06-.66-.1-1-.13a8.76,8.76,0,0,0-2.66.16,6.77,6.77,0,0,0-1.82.7A11.32,11.32,0,0,0,249,3.49c-.36.3-.72.65-1.1,1V3.2a1.19,1.19,0,0,0-.27-.76,1.61,1.61,0,0,0-.72-.47,4.77,4.77,0,0,0-1.1-.21c-.44,0-1-.06-1.64-.06s-1.17,0-1.59.06a5.63,5.63,0,0,0-1.11.2,1.6,1.6,0,0,0-.79.47,1.19,1.19,0,0,0-.27.76V24.86a1.11,1.11,0,0,0,.33.8,1.87,1.87,0,0,0,.85.44,6.8,6.8,0,0,0,1.25.2c.49,0,1.1.06,1.87.06s1.38,0,1.87-.06a6.84,6.84,0,0,0,1.25-.2,1.86,1.86,0,0,0,.84-.44,1.11,1.11,0,0,0,.34-.8V11.54a18.33,18.33,0,0,1,1.41-1.61,8.5,8.5,0,0,1,1.32-1.1,5.12,5.12,0,0,1,1.18-.58,4.07,4.07,0,0,1,2-.1c.29.05.55.11.79.18l.66.18a1.79,1.79,0,0,0,1.47-.1,1.37,1.37,0,0,0,.53-.7,4.18,4.18,0,0,0,.21-1,14.42,14.42,0,0,0,.06-1.49C258.61,4.62,258.6,4.15,258.58,3.8Z"/><path class="a" d="M284.16,7.81a9.18,9.18,0,0,0-2.38-3.57,11.15,11.15,0,0,0-4.09-2.34,18.63,18.63,0,0,0-5.9-.83,18.4,18.4,0,0,0-5.87.88,12.47,12.47,0,0,0-4.48,2.58,11.14,11.14,0,0,0-2.82,4.13,14.5,14.5,0,0,0-1,5.41,15.14,15.14,0,0,0,.92,5.49,9.58,9.58,0,0,0,2.83,4,12.34,12.34,0,0,0,4.67,2.31,24.53,24.53,0,0,0,6.37.75,31.73,31.73,0,0,0,3.77-.21c1.16-.14,2.21-.3,3.13-.49a20.71,20.71,0,0,0,2.27-.59,3.68,3.68,0,0,0,1.24-.56,2.22,2.22,0,0,0,.41-.46,1.81,1.81,0,0,0,.26-.62,5.34,5.34,0,0,0,.1-.72c0-.26,0-.58,0-1a10.52,10.52,0,0,0,0-1.07,2.19,2.19,0,0,0-.23-.81,1.21,1.21,0,0,0-.54-.53,2.8,2.8,0,0,0-2,.12q-.7.23-1.78.5c-.71.18-1.56.35-2.54.5a22.58,22.58,0,0,1-3.39.22,11.32,11.32,0,0,1-3.18-.39,5.37,5.37,0,0,1-2.07-1.09,4.07,4.07,0,0,1-1.14-1.7,6.66,6.66,0,0,1-.36-1.81h15.69a3,3,0,0,0,2-.67,2.58,2.58,0,0,0,.8-2.05v-1A12.71,12.71,0,0,0,284.16,7.81Zm-14.84-1a6,6,0,0,1,2.29-.4,5,5,0,0,1,3.81,1.3,4.68,4.68,0,0,1,1.13,3.15H266.42a6.53,6.53,0,0,1,.35-1.43,4.36,4.36,0,0,1,2.55-2.62Z"/><path class="a" d="M172.88,6.75A14.85,14.85,0,0,0,173,5.11c0-.62,0-1.82-.08-2.13a2.9,2.9,0,0,0-.24-.86,1.11,1.11,0,0,0-.42-.48,1.07,1.07,0,0,0-.54-.14H146.61a1,1,0,0,0-.56.15,1.14,1.14,0,0,0-.4.47,2.85,2.85,0,0,0-.24.86c0,.31-.08,1.5-.08,2.13a14.93,14.93,0,0,0,.08,1.64,2.8,2.8,0,0,0,.24.85,1.26,1.26,0,0,0,.39.48,1,1,0,0,0,.57.16h7.64a.65.65,0,0,1,.65.65V25a.66.66,0,0,0,.22.48,1.59,1.59,0,0,0,.71.34,8.24,8.24,0,0,0,1.29.2c.55.05,1.23.08,2,.08s1.47,0,2-.08a8.26,8.26,0,0,0,1.29-.2,1.6,1.6,0,0,0,.7-.34.67.67,0,0,0,.22-.49V8.9a.65.65,0,0,1,.66-.65h7.64a1,1,0,0,0,.55-.16,1.16,1.16,0,0,0,.41-.49A2.79,2.79,0,0,0,172.88,6.75Z"/><path class="b" d="M95,53.07a.63.63,0,0,0,.26-.58V33.24c0-2-.13-2.32-.27-2.45a1.66,1.66,0,0,0-.74-.36,8.19,8.19,0,0,0-1.23-.19c-.5,0-1.15-.07-1.91-.07s-1.44,0-2,.07a7.73,7.73,0,0,0-1.24.2,1.64,1.64,0,0,0-.72.36.79.79,0,0,0-.26.58v7.68a.62.62,0,0,1-.62.62H77.93a.62.62,0,0,1-.62-.62V31.38a.83.83,0,0,0-.24-.58,1.55,1.55,0,0,0-.73-.36,8.19,8.19,0,0,0-1.23-.19c-.5,0-1.16-.07-1.93-.07s-1.4,0-1.92.07a8.13,8.13,0,0,0-1.25.2,1.64,1.64,0,0,0-.74.36c-.12.12-.26.42-.26,2.44V52.49a.84.84,0,0,0,.26.58,1.65,1.65,0,0,0,.74.36,7.78,7.78,0,0,0,1.25.19c.51,0,1.16.07,1.92.07s1.43,0,1.93-.07a7.67,7.67,0,0,0,1.23-.2,1.54,1.54,0,0,0,.73-.36.82.82,0,0,0,.24-.57V46a.62.62,0,0,1,.62-.62h8.46A.62.62,0,0,1,87,46v6.49a.79.79,0,0,0,.26.58,1.63,1.63,0,0,0,.72.36,7.3,7.3,0,0,0,1.23.19c.51,0,1.17.07,2,.07s1.4,0,1.9-.07a7.62,7.62,0,0,0,1.23-.2A1.63,1.63,0,0,0,95,53.07Z"/><path class="b" d="M122.08,53a.82.82,0,0,0,.2-.55V31.37a.77.77,0,0,0-.25-.57,1.6,1.6,0,0,0-.7-.35,6.34,6.34,0,0,0-1.17-.18c-.49,0-1.11-.06-1.84-.06s-1.36,0-1.84.06a6.77,6.77,0,0,0-1.2.18,1.42,1.42,0,0,0-.69.35.79.79,0,0,0-.23.56V45a1.42,1.42,0,0,1-.14.57A5,5,0,0,1,107.93,48a3.42,3.42,0,0,1-1.32-.9,3.8,3.8,0,0,1-.78-1.42,8.72,8.72,0,0,1-.26-2.45V31.37a.78.78,0,0,0-.25-.57,1.59,1.59,0,0,0-.71-.35,6.7,6.7,0,0,0-1.19-.18c-.49,0-1.11-.06-1.84-.06s-1.33,0-1.83.06a6.93,6.93,0,0,0-1.21.18,1.43,1.43,0,0,0-.7.35.8.8,0,0,0-.22.56V44.21a14.17,14.17,0,0,0,.5,4.07,7.4,7.4,0,0,0,1.69,2.92,8.18,8.18,0,0,0,3.11,2,13.44,13.44,0,0,0,4.7.72,10,10,0,0,0,6.8-2.77.62.62,0,0,1,1,.51v.86a.84.84,0,0,0,.2.55,1.31,1.31,0,0,0,.61.36,4.74,4.74,0,0,0,1,.19c.42,0,1,.06,1.62.06s1.15,0,1.56-.06a5.15,5.15,0,0,0,1-.18A1.3,1.3,0,0,0,122.08,53Z"/><path class="b" d="M150.45,35.39a14.48,14.48,0,0,0,.08-1.56c0-.59,0-1.73-.08-2a2.68,2.68,0,0,0-.23-.82,1.06,1.06,0,0,0-.4-.45,1,1,0,0,0-.51-.13H125.53a1,1,0,0,0-.54.14,1.09,1.09,0,0,0-.38.45,2.74,2.74,0,0,0-.23.82c0,.29-.07,1.42-.07,2a14.66,14.66,0,0,0,.07,1.56,2.76,2.76,0,0,0,.23.8,1.19,1.19,0,0,0,.37.46.93.93,0,0,0,.54.16h7.25a.62.62,0,0,1,.62.62V52.74a.63.63,0,0,0,.21.46,1.5,1.5,0,0,0,.67.33,7.88,7.88,0,0,0,1.23.19c.52,0,1.17.07,1.92.07s1.4,0,1.92-.07a7.78,7.78,0,0,0,1.23-.19,1.51,1.51,0,0,0,.67-.32.64.64,0,0,0,.21-.46V37.43a.62.62,0,0,1,.62-.62h7.25a.93.93,0,0,0,.52-.15,1.14,1.14,0,0,0,.39-.46A2.71,2.71,0,0,0,150.45,35.39Z"/><circle class="b" cx="27.24" cy="27.24" r="27.24"/><path class="c" d="M39,11.08a2.46,2.46,0,0,0-2.45,2.45v7.28H29.3a2.45,2.45,0,1,0,0,4.91H39a2.46,2.46,0,0,0,2.45-2.45V13.53A2.46,2.46,0,0,0,39,11.08Z"/><path class="c" d="M39,28.65a2.46,2.46,0,0,0-2.45,2.46v3.45a2.45,2.45,0,1,0,4.91,0V31.1A2.46,2.46,0,0,0,39,28.65Z"/><path class="c" d="M30.82,35.32s-13.93-8.5-13.95-8.52a6.12,6.12,0,0,1-2.85-5c0-4.9,3.6-5.93,6.61-5.93h6.44a2.39,2.39,0,0,0,0-4.78H20.63c-6.92,0-11.39,4.2-11.39,10.71a9.91,9.91,0,0,0,4.58,8.65l13.49,8.13a5.93,5.93,0,0,1,2.75,4.89A2.46,2.46,0,0,0,32.52,46,2.42,2.42,0,0,0,35,43.5C35,38.43,32.47,36.39,30.82,35.32Z"/></svg>