<svg xmlns="http://www.w3.org/2000/svg" viewBox="0 0 230.2 75.09"><defs><style>.a{fill:none;stroke:#ef5323;stroke-linecap:round;stroke-linejoin:round;stroke-width:6px;}</style></defs><title>text1</title><path class="a" d="M220.55,51.44c-3.49-2.26-9.05-1.68-13.18,1.39s-6.54,8.39-5.71,12.63a4.72,4.72,0,0,0,2.22,3.45c2.15,1.11,5.41-.18,7.52-2.26a23.39,23.39,0,0,0,4.51-7.34c-.75,2.79-1.38,5.84-.11,8a5.19,5.19,0,0,0,5.81,2.08,8.56,8.56,0,0,0,5.6-4.86"/><path class="a" d="M12.24,33.32C9.14,31.21,7.85,27,9,22.89c2.45-8.7,12.67-12.26,20.14-12.08,9.11.21,17.23,3.4,26.37,3.63,7,.18,18-.55,22-8.85a3,3,0,0,0,.35-1.15A1.41,1.41,0,0,0,76.64,3a3.65,3.65,0,0,0-2.19.41C69.22,5.93,67,13.78,65.23,18.3,59.37,33,57.62,50.92,44.61,63.17c-4.79,4.51-10.69,6.71-16.71,7.75-11,1.91-19.54-2.3-24.9-9.82"/><path class="a" d="M46,40.82C68,38.6,80.59,38.18,101.77,39.56"/><path class="a" d="M113.8,9.47c-1.49-1.75-4.74-1.12-7.23.25a24.29,24.29,0,0,0-8,7.52,46.7,46.7,0,0,0-4.87,9.54c-6,15.15-8,31-5.73,45.31"/><path class="a" d="M117.44,52.38c-1.87-2.78-6.4-3-10-1.1a17.71,17.71,0,0,0-7.8,9.25,11.2,11.2,0,0,0-.9,4.8A4.39,4.39,0,0,0,100.84,69c2.29,1.21,5.78-.16,8.05-2.38s3.6-5.09,4.86-7.85c-1,2.47-1.3,5.16-.36,7.24a5.22,5.22,0,0,0,5.84,2.9,12.32,12.32,0,0,0,5.48-3.21,34.37,34.37,0,0,0,9.9-15.24c-3.72,6-3.81,13.35-.22,17.86a2.88,2.88,0,0,0,1.93,1.27c1.43.13,2.88-1.18,4-2.41a51.64,51.64,0,0,0,10.38-17.74,16.55,16.55,0,0,0,.5,7.3A6.76,6.76,0,0,0,156,61.27a7.66,7.66,0,0,0,7.23-2.79"/><path class="a" d="M163.59,64.87A30.52,30.52,0,0,0,170.2,61c2.09-1.7,3.83-4.06,4.12-6.45s-1.24-4.64-3.66-4.59a6.59,6.59,0,0,0-4.33,2.18,11.77,11.77,0,0,0-2.49,4.26c-2.19,6.21,0,13.54,7.07,13.36,5.78-.15,9.66-5.34,12.73-10"/></svg>