<svg xmlns="http://www.w3.org/2000/svg" viewBox="0 0 587.3 205.15"><defs><style>.a{fill:none;stroke:#1d1d1b;stroke-linecap:round;stroke-linejoin:round;stroke-width:10px;}</style></defs><title>text2</title><path class="a" d="M63.46,103.07c-5.83,2.74-9.7,9.54-9.4,15.21s4.21,10,9.35,11.94,11.34,1.58,17.38.14c12.55-3,26-12.36,29.55-24.58A21.12,21.12,0,0,0,102.93,83c-6.5-5-15.53-6.6-24.67-6.44A80,80,0,0,0,37.7,88.68C25,96.59,14.26,108.52,8.83,121.74s-5.19,27.59,1.44,37.65c7,10.55,20.31,15.67,34.43,15.6s29-4.88,42.9-11.59c26.71-12.86,54.27-36.13,61.21-64.67,1.2-4.94,3.66-14.63,0-17.9-1.7-1.52-4.54-1.79-7.08-.68-5.12,2.25-7.25,8.19-8.75,12.72a642,642,0,0,0-20.76,78.74c-.31,1.57-.54,3.39.57,4.27,1.95,1.55,5.3-1.26,7.19-3.69q7.9-10.11,15.56-20.31c1.74-2.32,4.22-4.56,6.88-4.81,8.12-.76,3,12.12,2.4,16.4-.58,4.44-.62,12.12,5.68,10.83,3.86-.79,7.55-5,10.1-7.9,5.74-6.59,11.51-14.73,14.88-22.46a12.66,12.66,0,0,0,1.39-5.34,3.43,3.43,0,0,0-2.85-3.52c-2.49-.26-5.24,2.69-5.23,5.19s2.12,4.21,4.58,4.54c4.33.59,9.81-2.21,13.36-.17,7.57,4.33-2.28,15.3-3.37,21.71-.69,4.05.9,8.28,4.71,9a10.53,10.53,0,0,0,6.51-1.26c12.15-6.07,21.21-20,23.3-31.91a78.46,78.46,0,0,0-6.45,23.64c-.5,4.79.26,9.5,5.62,10.18,7.21.91,16.57-9.82,21.46-15,6.23-6.62,12.06-14.44,15.22-22.46-5.67-2.25-3.76,12.55-3.21,14.26.9,2.75,2,5.43,2.22,8.45a11.66,11.66,0,0,1-3.22,9c-3.35,3.3-10.44,3.25-10.71-1.27.92,7.89,8.58,9.77,16.45,7.47,10-2.92,16.89-10.9,22.78-19.35a168.71,168.71,0,0,0,24.8-52.71c.72-2.69,1.28-5.76-.37-7.51-2-2.15-6.47-.9-9.11,1.71-2.84,2.8-4.22,6.45-5.55,9.86-1.58,4-3.09,8.09-4.31,12.19a115.65,115.65,0,0,0-4.33,22c-.68,7.13-1.86,14.44-.86,21.23a14.48,14.48,0,0,0,1.83,5.81c4,6.1,13.92,2.11,19.64-2.77,6.89-5.87,9.36-13,14.45-19.77a17.78,17.78,0,0,1,3.39-3.71c1.35-1,3.11-1.6,4.42-1.11,2.44.91,1.9,4.49,1,7.27l-3.22,10.6c-.88,2.9-2.61,6.6-2.83,9.45a2.92,2.92,0,0,0,1.78,3.25c1.3.38,3-.37,4.13-1.48,1.93-1.83,3.36-4.63,4.88-6.78,4.05-5.73,7.62-12,13.23-16.62,2-1.65,6.45-4.56,8.79-3.48s1.07,4.85.31,7c-1.31,3.67-3.47,7.39-4.77,11.06-.93,2.62-2.29,6.65-2.46,9.23-.08,1.28.69,2,2,1.7a4.44,4.44,0,0,0,2.79-2.26c4.87-7.63,11.79-17.14,19.35-23,2.66-2.06,6.26-4,8.62-2.66,2,1.19,1.9,4.25,1.13,6.84-1.23,4.13-3.59,8.14-4.51,12.29s.17,8.78,4,9.65c9.79,2.19,19.92-13.32,24.3-20.45"/><path class="a" d="M218.19,128a4.75,4.75,0,0,0,4.83.71,9.35,9.35,0,0,0,4.51-3.58c2.8-4.11,1-10.62-4.6-8.72C218.59,117.89,215.47,125.31,218.19,128Z"/><path class="a" d="M426.06,146.27c-5.15-3.1-12.93-2.45-19.1,1.59s-10.38,11.26-10.35,17.71c0,2.89.95,5.75,3.32,7.05,3.27,1.79,8.3,0,11.69-3.11s5.51-7.16,7.52-11.1A11.58,11.58,0,0,0,418,168.48a8.74,8.74,0,0,0,7.54,5.19c6,.48,12.5-4,17.39-8.89a66.76,66.76,0,0,0,17-28.29,6.66,6.66,0,0,0-4.29,3.42,10.25,10.25,0,0,0-1.1,5.08,36.72,36.72,0,0,0,1.78,9.19,23.24,23.24,0,0,1,1,9.42,13.36,13.36,0,0,1-5.35,9c-3.07,2.1-7.37,2.11-8.87-.49,5.68,4.54,14.74,5.12,22.8,1.44s14.78-11.44,16.9-19.54"/><path class="a" d="M259.31,120.84a375.58,375.58,0,0,1,68.57-6.43"/><path class="a" d="M517.69,198.9a15.7,15.7,0,0,0,5.6-5.27c5.05-7.46-.42-17.47-8.56-9.85C509,189.11,506.49,204.62,517.69,198.9Z"/><path class="a" d="M527.38,156.66c2-14.35,4.47-27,9.69-40.76,4-10.59,9-20.9,15.46-29.14s14.42-14.28,22.05-15.09c2.82-.3,5.8.32,7.1,3.4,1.42,3.37.26,8.68-1.89,12.59s-5.09,6.78-7.92,9.63a294.54,294.54,0,0,0-39.61,50.46c-2.89,4.6-5.88,10-6,15.37"/><path class="a" d="M207.35,13a214.19,214.19,0,0,0-18.62,50.09"/><path class="a" d="M233,13.34l-20.2,52.05"/><path class="a" d="M182.35,32.31l57.11-6"/><path class="a" d="M176.93,54A189.9,189.9,0,0,1,233,46.92"/><path class="a" d="M260,63.2c.65-18.64,4.9-37.08,12.09-52.48"/><path class="a" d="M261.14,14.6A164.28,164.28,0,0,1,302.05,5"/><path class="a" d="M258.13,37.69l28.67-6.6"/><path class="a" d="M310.28,64.51c.65-18.64,4.9-37.08,12.09-52.48"/><path class="a" d="M311.4,15.92a164.28,164.28,0,0,1,40.91-9.6"/><path class="a" d="M308.39,39l28.67-6.6"/><path class="a" d="M360.54,65.83c.65-18.64,4.9-37.08,12.09-52.48"/><path class="a" d="M361.66,17.23a164.28,164.28,0,0,1,40.91-9.6"/><path class="a" d="M358.65,40.32l28.67-6.6"/><path class="a" d="M410.8,67.15c.65-18.64,4.9-37.08,12.09-52.48"/><path class="a" d="M411.92,18.55A164.28,164.28,0,0,1,452.83,9"/><path class="a" d="M408.91,41.64,437.57,35"/><path class="a" d="M461.06,68.47c.65-18.64,4.9-37.08,12.09-52.48"/><path class="a" d="M462.17,19.87a164.28,164.28,0,0,1,40.91-9.6"/><path class="a" d="M459.17,43l28.67-6.6"/><path class="a" d="M511.32,69.78c.65-18.64,4.9-37.08,12.09-52.48"/><path class="a" d="M512.43,21.19a164.28,164.28,0,0,1,40.91-9.6"/><path class="a" d="M509.42,44.27l28.67-6.6"/></svg>