<svg xmlns="http://www.w3.org/2000/svg" viewBox="0 0 668.82 233.1"><defs><style>.a,.b{fill:none;stroke-linecap:round;stroke-linejoin:round;}.a{stroke:#ef5323;stroke-width:6px;}.b{stroke:#1d1d1b;stroke-width:10px;}</style></defs><title>text</title><path class="a" d="M220.55,51.44c-3.49-2.26-9.05-1.68-13.18,1.39s-6.54,8.39-5.71,12.63a4.72,4.72,0,0,0,2.22,3.45c2.15,1.11,5.41-.18,7.52-2.26a23.39,23.39,0,0,0,4.51-7.34c-.75,2.79-1.38,5.84-.11,8a5.19,5.19,0,0,0,5.81,2.08,8.56,8.56,0,0,0,5.6-4.86"/><path class="a" d="M12.24,33.32C9.14,31.21,7.85,27,9,22.89c2.45-8.7,12.67-12.26,20.14-12.08,9.11.21,17.23,3.4,26.37,3.63,7,.18,18-.55,22-8.85a3,3,0,0,0,.35-1.15A1.41,1.41,0,0,0,76.64,3a3.65,3.65,0,0,0-2.19.41C69.22,5.93,67,13.78,65.23,18.3,59.37,33,57.62,50.92,44.61,63.17c-4.79,4.51-10.69,6.71-16.71,7.75-11,1.91-19.54-2.3-24.9-9.82"/><path class="a" d="M46,40.82C68,38.6,80.59,38.18,101.77,39.56"/><path class="a" d="M113.8,9.47c-1.49-1.75-4.74-1.12-7.23.25a24.29,24.29,0,0,0-8,7.52,46.7,46.7,0,0,0-4.87,9.54c-6,15.15-8,31-5.73,45.31"/><path class="a" d="M117.44,52.38c-1.87-2.78-6.4-3-10-1.1a17.71,17.71,0,0,0-7.8,9.25,11.2,11.2,0,0,0-.9,4.8A4.39,4.39,0,0,0,100.84,69c2.29,1.21,5.78-.16,8.05-2.38s3.6-5.09,4.86-7.85c-1,2.47-1.3,5.16-.36,7.24a5.22,5.22,0,0,0,5.84,2.9,12.32,12.32,0,0,0,5.48-3.21,34.37,34.37,0,0,0,9.9-15.24c-3.72,6-3.81,13.35-.22,17.86a2.88,2.88,0,0,0,1.93,1.27c1.43.13,2.88-1.18,4-2.41a51.64,51.64,0,0,0,10.38-17.74,16.55,16.55,0,0,0,.5,7.3A6.76,6.76,0,0,0,156,61.27a7.66,7.66,0,0,0,7.23-2.79"/><path class="a" d="M163.59,64.87A30.52,30.52,0,0,0,170.2,61c2.09-1.7,3.83-4.06,4.12-6.45s-1.24-4.64-3.66-4.59a6.59,6.59,0,0,0-4.33,2.18,11.77,11.77,0,0,0-2.49,4.26c-2.19,6.21,0,13.54,7.07,13.36,5.78-.15,9.66-5.34,12.73-10"/><path class="b" d="M145,131c-5.83,2.74-9.7,9.54-9.4,15.21s4.21,10,9.35,11.94,11.34,1.58,17.38.14c12.55-3,26-12.36,29.55-24.58a21.12,21.12,0,0,0-7.41-22.82c-6.5-5-15.53-6.6-24.67-6.44a80,80,0,0,0-40.55,12.16c-12.66,7.92-23.45,19.84-28.88,33.06s-5.19,27.59,1.44,37.65c7,10.55,20.31,15.67,34.43,15.6s29-4.88,42.9-11.59c26.71-12.86,54.27-36.13,61.21-64.67,1.2-4.94,3.66-14.63,0-17.9-1.7-1.52-4.54-1.79-7.08-.68-5.12,2.25-7.25,8.19-8.75,12.72a642,642,0,0,0-20.76,78.74c-.31,1.57-.54,3.39.57,4.27,1.95,1.55,5.3-1.26,7.19-3.69q7.9-10.11,15.56-20.31c1.74-2.32,4.22-4.56,6.88-4.81,8.12-.76,3,12.12,2.4,16.4-.58,4.44-.62,12.12,5.68,10.83,3.86-.79,7.55-5,10.1-7.9,5.74-6.59,11.51-14.73,14.88-22.46a12.66,12.66,0,0,0,1.39-5.34,3.43,3.43,0,0,0-2.85-3.52c-2.49-.26-5.24,2.69-5.23,5.19s2.12,4.21,4.58,4.54c4.33.59,9.81-2.21,13.36-.17,7.57,4.33-2.28,15.3-3.37,21.71-.69,4.05.9,8.28,4.71,9a10.53,10.53,0,0,0,6.51-1.26c12.15-6.07,21.21-20,23.3-31.91A78.46,78.46,0,0,0,293,193.83c-.5,4.79.26,9.5,5.62,10.18,7.21.91,16.57-9.82,21.46-15,6.23-6.62,12.06-14.44,15.22-22.46-5.67-2.25-3.76,12.55-3.21,14.26.9,2.75,2,5.43,2.22,8.45a11.66,11.66,0,0,1-3.22,9c-3.35,3.3-10.44,3.25-10.71-1.27.92,7.89,8.58,9.77,16.45,7.47,10-2.92,16.89-10.9,22.78-19.35a168.71,168.71,0,0,0,24.8-52.71c.72-2.69,1.28-5.76-.37-7.51-2-2.15-6.47-.9-9.11,1.71-2.84,2.8-4.22,6.45-5.55,9.86-1.58,4-3.09,8.09-4.31,12.19a115.65,115.65,0,0,0-4.33,22c-.68,7.13-1.86,14.44-.86,21.23a14.48,14.48,0,0,0,1.83,5.81c4,6.1,13.92,2.11,19.64-2.77,6.89-5.87,9.36-13,14.45-19.77a17.78,17.78,0,0,1,3.39-3.71c1.35-1,3.11-1.6,4.42-1.11,2.44.91,1.9,4.49,1,7.27l-3.22,10.6c-.88,2.9-2.61,6.6-2.83,9.45a2.92,2.92,0,0,0,1.78,3.25c1.3.38,3-.37,4.13-1.48,1.93-1.83,3.36-4.63,4.88-6.78,4.05-5.73,7.62-12,13.23-16.62,2-1.65,6.45-4.56,8.79-3.48s1.07,4.85.31,7c-1.31,3.67-3.47,7.39-4.77,11.06-.93,2.62-2.29,6.65-2.46,9.23-.08,1.28.69,2,2,1.7a4.44,4.44,0,0,0,2.79-2.26c4.87-7.63,11.79-17.14,19.35-23,2.66-2.06,6.26-4,8.62-2.66,2,1.19,1.9,4.25,1.13,6.84-1.23,4.13-3.59,8.14-4.51,12.29s.17,8.78,4,9.65c9.79,2.19,19.92-13.32,24.3-20.45"/><path class="b" d="M299.7,156a4.75,4.75,0,0,0,4.83.71,9.35,9.35,0,0,0,4.51-3.58c2.8-4.11,1-10.62-4.6-8.72C300.1,145.84,297,153.27,299.7,156Z"/><path class="b" d="M507.58,174.22c-5.15-3.1-12.93-2.45-19.1,1.59s-10.38,11.26-10.35,17.71c0,2.89.95,5.75,3.32,7.05,3.27,1.79,8.3,0,11.69-3.11s5.51-7.16,7.52-11.1a11.58,11.58,0,0,0-1.13,10.08,8.74,8.74,0,0,0,7.54,5.19c6,.48,12.5-4,17.39-8.89a66.76,66.76,0,0,0,17-28.29,6.66,6.66,0,0,0-4.29,3.42,10.25,10.25,0,0,0-1.1,5.08,36.72,36.72,0,0,0,1.78,9.19,23.24,23.24,0,0,1,1,9.42,13.36,13.36,0,0,1-5.35,9c-3.07,2.1-7.37,2.11-8.87-.49,5.68,4.54,14.74,5.12,22.8,1.44s14.78-11.44,16.9-19.54"/><path class="b" d="M340.82,148.79a375.58,375.58,0,0,1,68.57-6.43"/><path class="b" d="M599.21,226.86a15.7,15.7,0,0,0,5.6-5.27c5.05-7.46-.42-17.47-8.56-9.85C590.56,217.06,588,232.57,599.21,226.86Z"/><path class="b" d="M608.9,184.62c2-14.35,4.47-27,9.69-40.76,4-10.59,9-20.9,15.46-29.14s14.42-14.28,22.05-15.09c2.82-.3,5.8.32,7.1,3.4,1.42,3.37.26,8.68-1.89,12.59s-5.09,6.78-7.92,9.63a294.54,294.54,0,0,0-39.61,50.46c-2.89,4.6-5.88,10-6,15.37"/><path class="b" d="M288.86,41a214.19,214.19,0,0,0-18.62,50.09"/><path class="b" d="M314.55,41.3l-20.2,52.05"/><path class="b" d="M263.87,60.26l57.11-6"/><path class="b" d="M258.45,82a189.9,189.9,0,0,1,56.09-7.11"/><path class="b" d="M341.54,91.15c.65-18.64,4.9-37.08,12.09-52.48"/><path class="b" d="M342.66,42.55A164.28,164.28,0,0,1,383.57,33"/><path class="b" d="M339.65,65.64,368.32,59"/><path class="b" d="M391.8,92.47c.65-18.64,4.9-37.08,12.09-52.48"/><path class="b" d="M392.92,43.87a164.28,164.28,0,0,1,40.91-9.6"/><path class="b" d="M389.91,67l28.67-6.6"/><path class="b" d="M442.06,93.79c.65-18.64,4.9-37.08,12.09-52.48"/><path class="b" d="M443.17,45.19a164.28,164.28,0,0,1,40.91-9.6"/><path class="b" d="M440.17,68.28l28.67-6.6"/><path class="b" d="M492.32,95.1c.65-18.64,4.9-37.08,12.09-52.48"/><path class="b" d="M493.43,46.51a164.28,164.28,0,0,1,40.91-9.6"/><path class="b" d="M490.42,69.59,519.09,63"/><path class="b" d="M542.57,96.42c.65-18.64,4.9-37.08,12.09-52.48"/><path class="b" d="M543.69,47.82a164.28,164.28,0,0,1,40.91-9.6"/><path class="b" d="M540.68,70.91l28.67-6.6"/><path class="b" d="M592.83,97.74c.65-18.64,4.9-37.08,12.09-52.48"/><path class="b" d="M593.95,49.14a164.28,164.28,0,0,1,40.91-9.6"/><path class="b" d="M590.94,72.23l28.67-6.6"/></svg>